<svg version="1.1" id="Layer_1" xmlns="http://www.w3.org/2000/svg" xmlns:xlink="http://www.w3.org/1999/xlink" x="0px" y="0px"
	 width="100%" viewBox="0 0 1024 1024" enable-background="new 0 0 1024 1024" xml:space="preserve">
<path fill="#000000" opacity="1.000000" stroke="none" 
	d="
M475.000000,1025.000000 
	C316.666656,1025.000000 158.833328,1025.000000 1.000000,1025.000000 
	C1.000000,683.666687 1.000000,342.333344 1.000000,1.000000 
	C342.333344,1.000000 683.666687,1.000000 1025.000000,1.000000 
	C1025.000000,342.333344 1025.000000,683.666687 1025.000000,1025.000000 
	C841.833313,1025.000000 658.666687,1025.000000 475.000000,1025.000000 
M442.698486,764.140564 
	C448.322906,753.630493 450.399231,742.525146 447.805542,730.808838 
	C445.202667,719.051086 438.758453,709.630859 428.298096,701.858887 
	C487.728149,701.858887 545.993469,701.858887 604.828857,701.858887 
	C576.865601,724.787537 582.637451,756.489746 596.754456,772.128784 
	C613.688965,790.888916 642.230713,793.224548 661.622986,777.047363 
	C671.116455,769.127808 676.705322,758.983765 678.135437,746.660461 
	C680.270203,728.264648 673.094299,713.731750 657.992920,701.479797 
	C661.204651,701.479797 662.995483,701.475281 664.786377,701.480469 
	C674.452148,701.508667 684.120117,701.676331 693.783081,701.525146 
	C701.363708,701.406555 707.617065,696.192993 708.927856,689.371399 
	C710.364319,681.896301 706.736023,674.450562 699.796387,671.810974 
	C696.940857,670.724854 693.626160,670.472778 690.520264,670.472107 
	C583.695984,670.447754 476.871735,670.501953 370.047485,670.528625 
	C366.050079,670.529602 362.036743,670.565125 358.058380,670.243591 
	C348.617218,669.480713 340.250000,662.297974 338.021240,653.297058 
	C335.813538,644.381165 339.358551,634.054077 347.620911,629.482483 
	C352.333130,626.875122 358.244659,625.222839 363.621643,625.208740 
	C465.279205,624.942078 566.937622,625.000000 668.595825,624.954041 
	C701.348511,624.939270 723.572693,607.443909 730.997864,575.559875 
	C743.452820,522.077393 755.686340,468.543396 768.075684,415.045593 
	C778.550537,369.814911 789.151611,324.613434 799.562073,279.368011 
	C800.327332,276.041748 801.519287,274.856232 805.070801,274.664124 
	C829.859924,273.323090 854.632996,271.685852 879.412231,270.160736 
	C888.833191,269.580872 895.281067,262.932404 894.915405,254.118057 
	C894.549866,245.307587 887.516602,238.651215 878.258850,239.197021 
	C849.486023,240.893387 820.720093,242.738617 791.972961,244.822006 
	C780.661926,245.641739 773.675720,252.104843 771.094543,263.111572 
	C769.612854,269.429779 768.370605,275.803833 766.927979,282.131683 
	C764.576782,292.445221 762.149719,302.741455 759.726929,313.164124 
	C729.707886,314.119843 700.236877,315.096649 670.763306,315.988281 
	C611.797913,317.772095 552.830811,319.500641 493.864868,321.267731 
	C418.908813,323.513977 343.954346,325.812317 268.996643,328.001526 
	C253.287186,328.460358 247.258240,335.799225 250.547928,351.092896 
	C266.469116,425.110352 282.459778,499.112915 298.274536,573.153076 
	C301.361420,587.604919 307.566772,600.132629 318.508850,610.189087 
	C319.229828,610.851746 319.833099,611.642517 320.565613,612.456421 
	C319.283051,614.144653 318.037994,615.696777 316.885284,617.314697 
	C308.345184,629.301331 305.158051,642.684753 307.567230,657.103210 
	C311.909119,683.088928 332.973938,700.873718 359.610199,701.487427 
	C364.663025,701.603882 369.720825,701.504089 376.070282,701.504089 
	C357.197571,717.178406 350.794922,735.582031 358.757202,757.553955 
	C365.327515,775.684509 379.170319,785.915649 398.190765,787.566528 
	C417.246460,789.220459 432.097107,781.072571 442.698486,764.140564 
z"/>
<path fill="#25DADC" opacity="1.000000" stroke="none" 
	d="
M442.496094,764.447876 
	C432.097107,781.072571 417.246460,789.220459 398.190765,787.566528 
	C379.170319,785.915649 365.327515,775.684509 358.757202,757.553955 
	C350.794922,735.582031 357.197571,717.178406 376.070282,701.504089 
	C369.720825,701.504089 364.663025,701.603882 359.610199,701.487427 
	C332.973938,700.873718 311.909119,683.088928 307.567230,657.103210 
	C305.158051,642.684753 308.345184,629.301331 316.885284,617.314697 
	C318.037994,615.696777 319.283051,614.144653 320.565613,612.456421 
	C319.833099,611.642517 319.229828,610.851746 318.508850,610.189087 
	C307.566772,600.132629 301.361420,587.604919 298.274536,573.153076 
	C282.459778,499.112915 266.469116,425.110352 250.547928,351.092896 
	C247.258240,335.799225 253.287186,328.460358 268.996643,328.001526 
	C343.954346,325.812317 418.908813,323.513977 493.864868,321.267731 
	C552.830811,319.500641 611.797913,317.772095 670.763306,315.988281 
	C700.236877,315.096649 729.707886,314.119843 759.726929,313.164124 
	C762.149719,302.741455 764.576782,292.445221 766.927979,282.131683 
	C768.370605,275.803833 769.612854,269.429779 771.094543,263.111572 
	C773.675720,252.104843 780.661926,245.641739 791.972961,244.822006 
	C820.720093,242.738617 849.486023,240.893387 878.258850,239.197021 
	C887.516602,238.651215 894.549866,245.307587 894.915405,254.118057 
	C895.281067,262.932404 888.833191,269.580872 879.412231,270.160736 
	C854.632996,271.685852 829.859924,273.323090 805.070801,274.664124 
	C801.519287,274.856232 800.327332,276.041748 799.562073,279.368011 
	C789.151611,324.613434 778.550537,369.814911 768.075684,415.045593 
	C755.686340,468.543396 743.452820,522.077393 730.997864,575.559875 
	C723.572693,607.443909 701.348511,624.939270 668.595825,624.954041 
	C566.937622,625.000000 465.279205,624.942078 363.621643,625.208740 
	C358.244659,625.222839 352.333130,626.875122 347.620911,629.482483 
	C339.358551,634.054077 335.813538,644.381165 338.021240,653.297058 
	C340.250000,662.297974 348.617218,669.480713 358.058380,670.243591 
	C362.036743,670.565125 366.050079,670.529602 370.047485,670.528625 
	C476.871735,670.501953 583.695984,670.447754 690.520264,670.472107 
	C693.626160,670.472778 696.940857,670.724854 699.796387,671.810974 
	C706.736023,674.450562 710.364319,681.896301 708.927856,689.371399 
	C707.617065,696.192993 701.363708,701.406555 693.783081,701.525146 
	C684.120117,701.676331 674.452148,701.508667 664.786377,701.480469 
	C662.995483,701.475281 661.204651,701.479797 657.992920,701.479797 
	C673.094299,713.731750 680.270203,728.264648 678.135437,746.660461 
	C676.705322,758.983765 671.116455,769.127808 661.622986,777.047363 
	C642.230713,793.224548 613.688965,790.888916 596.754456,772.128784 
	C582.637451,756.489746 576.865601,724.787537 604.828857,701.858887 
	C545.993469,701.858887 487.728149,701.858887 428.298096,701.858887 
	C438.758453,709.630859 445.202667,719.051086 447.805542,730.808838 
	C450.399231,742.525146 448.322906,753.630493 442.496094,764.447876 
M310.765564,358.254913 
	C302.145660,358.254913 293.525757,358.254913 284.556915,358.254913 
	C284.922516,360.802429 285.031250,362.122711 285.308167,363.406677 
	C291.202393,390.735657 297.161835,418.050629 303.014038,445.388550 
	C311.827148,486.558075 320.531982,527.750793 329.357452,568.917664 
	C332.717255,584.589600 343.544067,593.780029 358.661774,593.783630 
	C462.156128,593.808105 565.650452,593.805603 669.144836,593.758484 
	C686.934875,593.750366 697.030457,585.456177 700.986328,568.208374 
	C713.819275,512.255676 726.706604,456.315460 739.565613,400.368744 
	C743.773560,382.060669 747.958801,363.747375 752.341980,344.618195 
	C605.101074,349.165436 458.410034,353.695709 310.765564,358.254913 
M383.795044,745.452026 
	C387.384338,755.820374 396.485535,761.601685 405.989044,759.550293 
	C416.055634,757.377380 422.635284,747.574768 420.838135,737.427612 
	C419.070923,727.449341 409.019867,720.458435 399.009918,722.245178 
	C388.334106,724.150818 381.917542,733.471191 383.795044,745.452026 
M650.983398,739.664978 
	C650.047058,730.704651 645.186340,724.957397 636.545593,722.654663 
	C628.880493,720.612000 622.371948,723.096680 617.243103,728.891724 
	C611.817871,735.021606 611.300659,743.813354 615.583740,750.692688 
	C620.058411,757.879761 628.801270,761.431885 636.714355,759.277832 
	C645.330688,756.932312 650.535400,750.097717 650.983398,739.664978 
z"/>
<path fill="#000101" opacity="1.000000" stroke="none" 
	d="
M311.242310,358.240448 
	C458.410034,353.695709 605.101074,349.165436 752.341980,344.618195 
	C747.958801,363.747375 743.773560,382.060669 739.565613,400.368744 
	C726.706604,456.315460 713.819275,512.255676 700.986328,568.208374 
	C697.030457,585.456177 686.934875,593.750366 669.144836,593.758484 
	C565.650452,593.805603 462.156128,593.808105 358.661774,593.783630 
	C343.544067,593.780029 332.717255,584.589600 329.357452,568.917664 
	C320.531982,527.750793 311.827148,486.558075 303.014038,445.388550 
	C297.161835,418.050629 291.202393,390.735657 285.308167,363.406677 
	C285.031250,362.122711 284.922516,360.802429 284.556915,358.254913 
	C293.525757,358.254913 302.145660,358.254913 311.242310,358.240448 
M652.129883,418.456268 
	C650.527954,414.996857 649.267944,411.324768 647.269348,408.112183 
	C633.078552,385.301575 603.353821,383.244293 586.490234,404.113525 
	C574.125732,419.415100 572.480347,436.553284 580.439209,454.302704 
	C587.131226,469.227051 602.221558,478.333740 617.083923,477.422882 
	C633.108826,476.440826 646.721497,465.610077 652.041138,449.658112 
	C655.415344,439.539764 655.514709,429.402039 652.129883,418.456268 
M426.611511,475.255157 
	C457.167358,463.023407 463.431183,419.906555 437.774078,398.418060 
	C424.328888,387.157379 405.499939,386.748474 391.790894,397.707397 
	C379.399170,407.613312 374.279724,420.962952 375.211243,436.486053 
	C376.942444,465.334778 401.058014,483.613373 426.611511,475.255157 
M489.021667,519.370117 
	C487.077362,513.959839 484.561523,508.676178 483.328217,503.108459 
	C481.653625,495.548370 475.900269,490.293671 468.730621,491.052917 
	C461.489685,491.819702 455.705688,498.131378 456.930573,505.647064 
	C458.196014,513.411499 459.859772,521.506714 463.365204,528.437622 
	C474.813873,551.073914 501.324951,562.898132 526.722107,557.714844 
	C552.334534,552.487610 570.364685,532.561340 572.843262,506.743408 
	C573.632324,498.524109 568.622620,492.002014 560.877991,491.165924 
	C553.888611,490.411346 547.735657,495.655823 546.733826,503.529846 
	C544.894653,517.985352 536.794922,527.431152 523.128113,531.425415 
	C509.588562,535.382507 498.308868,530.724487 489.021667,519.370117 
z"/>
<path fill="#010303" opacity="1.000000" stroke="none" 
	d="
M383.684021,745.059998 
	C381.917542,733.471191 388.334106,724.150818 399.009918,722.245178 
	C409.019867,720.458435 419.070923,727.449341 420.838135,737.427612 
	C422.635284,747.574768 416.055634,757.377380 405.989044,759.550293 
	C396.485535,761.601685 387.384338,755.820374 383.684021,745.059998 
z"/>
<path fill="#010303" opacity="1.000000" stroke="none" 
	d="
M650.991089,740.092590 
	C650.535400,750.097717 645.330688,756.932312 636.714355,759.277832 
	C628.801270,761.431885 620.058411,757.879761 615.583740,750.692688 
	C611.300659,743.813354 611.817871,735.021606 617.243103,728.891724 
	C622.371948,723.096680 628.880493,720.612000 636.545593,722.654663 
	C645.186340,724.957397 650.047058,730.704651 650.991089,740.092590 
z"/>
<path fill="#24D9DC" opacity="1.000000" stroke="none" 
	d="
M652.249512,418.838837 
	C655.514709,429.402039 655.415344,439.539764 652.041138,449.658112 
	C646.721497,465.610077 633.108826,476.440826 617.083923,477.422882 
	C602.221558,478.333740 587.131226,469.227051 580.439209,454.302704 
	C572.480347,436.553284 574.125732,419.415100 586.490234,404.113525 
	C603.353821,383.244293 633.078552,385.301575 647.269348,408.112183 
	C649.267944,411.324768 650.527954,414.996857 652.249512,418.838837 
M587.988586,406.488373 
	C581.510681,414.209839 581.150513,423.457489 587.049683,430.597992 
	C592.518738,437.217865 602.132996,438.875336 609.665894,434.497040 
	C618.507385,429.358032 621.052307,417.973999 615.294434,409.318268 
	C609.474304,400.568939 597.836365,399.123260 587.988586,406.488373 
z"/>
<path fill="#24D9DC" opacity="1.000000" stroke="none" 
	d="
M426.247467,475.412048 
	C401.058014,483.613373 376.942444,465.334778 375.211243,436.486053 
	C374.279724,420.962952 379.399170,407.613312 391.790894,397.707397 
	C405.499939,386.748474 424.328888,387.157379 437.774078,398.418060 
	C463.431183,419.906555 457.167358,463.023407 426.247467,475.412048 
M412.103424,413.897980 
	C411.929901,414.710602 411.725037,415.518005 411.587769,416.336700 
	C410.387695,423.492950 413.488678,430.538300 419.696136,434.257294 
	C426.151367,438.124817 432.696198,437.949493 438.942963,433.819580 
	C444.966339,429.837433 447.719910,422.542419 446.188019,415.527496 
	C444.440063,407.522888 438.863312,402.460327 430.750702,401.513489 
	C423.068298,400.616882 416.410858,404.832703 412.103424,413.897980 
z"/>
<path fill="#24D9DA" opacity="1.000000" stroke="none" 
	d="
M489.227081,519.668762 
	C498.308868,530.724487 509.588562,535.382507 523.128113,531.425415 
	C536.794922,527.431152 544.894653,517.985352 546.733826,503.529846 
	C547.735657,495.655823 553.888611,490.411346 560.877991,491.165924 
	C568.622620,492.002014 573.632324,498.524109 572.843262,506.743408 
	C570.364685,532.561340 552.334534,552.487610 526.722107,557.714844 
	C501.324951,562.898132 474.813873,551.073914 463.365204,528.437622 
	C459.859772,521.506714 458.196014,513.411499 456.930573,505.647064 
	C455.705688,498.131378 461.489685,491.819702 468.730621,491.052917 
	C475.900269,490.293671 481.653625,495.548370 483.328217,503.108459 
	C484.561523,508.676178 487.077362,513.959839 489.227081,519.668762 
z"/>
<path fill="#010303" opacity="1.000000" stroke="none" 
	d="
M588.263123,406.241455 
	C597.836365,399.123260 609.474304,400.568939 615.294434,409.318268 
	C621.052307,417.973999 618.507385,429.358032 609.665894,434.497040 
	C602.132996,438.875336 592.518738,437.217865 587.049683,430.597992 
	C581.150513,423.457489 581.510681,414.209839 588.263123,406.241455 
z"/>
<path fill="#010404" opacity="1.000000" stroke="none" 
	d="
M412.229950,413.529785 
	C416.410858,404.832703 423.068298,400.616882 430.750702,401.513489 
	C438.863312,402.460327 444.440063,407.522888 446.188019,415.527496 
	C447.719910,422.542419 444.966339,429.837433 438.942963,433.819580 
	C432.696198,437.949493 426.151367,438.124817 419.696136,434.257294 
	C413.488678,430.538300 410.387695,423.492950 411.587769,416.336700 
	C411.725037,415.518005 411.929901,414.710602 412.229950,413.529785 
z"/>
</svg>